<?xml version="1.0" encoding="UTF-8" standalone="no"?><!-- Generator: Gravit.io --><svg xmlns="http://www.w3.org/2000/svg" xmlns:xlink="http://www.w3.org/1999/xlink" style="isolation:isolate" viewBox="441 186 228 228" width="228pt" height="228pt"><g><path d=" M 610.534 185.579 L 498.402 185.579 C 466.578 185.579 440.54 211.617 440.54 243.442 L 440.54 355.573 C 440.54 387.398 466.578 413.436 498.402 413.436 L 535.185 413.436 L 610.534 413.436 C 642.358 413.436 668.397 387.398 668.397 355.573 L 668.397 258.721 L 668.397 243.442 C 668.397 211.617 642.358 185.579 610.534 185.579 Z " fill="rgb(226,57,43)"/><linearGradient id="_lgradient_15" x1="0.05433889029211203" y1="0.07233137521668342" x2="0.9459070229025568" y2="0.8696378499763611" gradientTransform="matrix(170,0,0,190,498,223)" gradientUnits="userSpaceOnUse"><stop offset="0%" stop-opacity="1" style="stop-color:rgb(170,0,37)"/><stop offset="10%" stop-opacity="1" style="stop-color:rgb(179,9,38)"/><stop offset="20%" stop-opacity="1" style="stop-color:rgb(187,18,39)"/><stop offset="30.000000000000004%" stop-opacity="1" style="stop-color:rgb(195,26,40)"/><stop offset="40%" stop-opacity="1" style="stop-color:rgb(202,33,40)"/><stop offset="50%" stop-opacity="1" style="stop-color:rgb(208,39,41)"/><stop offset="60%" stop-opacity="1" style="stop-color:rgb(214,45,42)"/><stop offset="70%" stop-opacity="1" style="stop-color:rgb(218,49,42)"/><stop offset="80%" stop-opacity="1" style="stop-color:rgb(222,53,43)"/><stop offset="89.99999999999999%" stop-opacity="1" style="stop-color:rgb(225,56,43)"/><stop offset="99.99999999999999%" stop-opacity="1" style="stop-color:rgb(226,57,43)"/></linearGradient><path d=" M 498.154 246.086 L 505.039 373.432 L 544.756 413.436 L 610.481 413.436 C 642.334 413.436 668.397 387.374 668.397 355.52 L 668.397 355.52 L 668.397 258.578 L 620.724 223.066 L 498.154 246.086 Z " fill="url(#_lgradient_15)"/><path d=" M 603.75 278.673 C 567.081 264.851 545.548 285.141 545.548 285.141 L 552.727 305.573 L 572.054 311.647 L 584.234 306.862 L 588.87 341.796 C 570.97 330.969 553.59 330.149 553.59 330.149 C 531.318 330.009 516.984 342.119 516.984 342.119 C 500.468 289.342 517.318 257.341 517.318 257.341 L 530.203 257.341 L 538.918 257.341 L 557.747 257.341 L 563.41 257.341 L 599.377 257.341 C 607.672 257.821 611.52 252.339 611.52 252.339 L 614.604 247.019 L 617.96 241.228 L 620.337 237.129 C 620.325 237.11 620.312 237.092 620.3 237.074 L 622.012 234.086 C 628.114 223.418 618.114 222.88 616.522 222.86 L 606.795 222.86 C 606.501 222.831 606.197 222.815 605.878 222.816 C 572.347 222.885 538.816 222.877 505.285 222.827 C 502.878 222.824 501.146 223.591 499.552 225.408 C 493.586 232.208 488.81 239.768 485.002 247.933 C 474.757 269.898 471.893 293.038 475.324 316.824 C 478.227 336.949 485.582 355.392 498.945 371.121 C 500.932 373.459 503.084 374.404 506.16 374.381 C 522.483 374.256 538.808 374.322 555.132 374.322 C 571.751 374.322 588.37 374.258 604.987 374.381 C 608.061 374.403 610.235 373.485 612.208 371.128 C 618.294 363.855 623.289 355.918 627.098 347.257 C 627.116 347.217 627.131 347.176 627.149 347.136 L 603.75 278.673 Z " fill="rgb(255,255,255)"/><linearGradient id="_lgradient_16" x1="0.5000041548233138" y1="0.9999998029722175" x2="0.500004154823314" y2="-1.9702778253360975e-7" gradientTransform="matrix(57,0,0,65,546,285)" gradientUnits="userSpaceOnUse"><stop offset="0%" stop-opacity="1" style="stop-color:rgb(255,255,255)"/><stop offset="10%" stop-opacity="1" style="stop-color:rgb(251,251,251)"/><stop offset="20%" stop-opacity="1" style="stop-color:rgb(247,247,248)"/><stop offset="30.000000000000004%" stop-opacity="1" style="stop-color:rgb(243,244,244)"/><stop offset="40%" stop-opacity="1" style="stop-color:rgb(239,240,240)"/><stop offset="50%" stop-opacity="1" style="stop-color:rgb(236,236,237)"/><stop offset="60%" stop-opacity="1" style="stop-color:rgb(232,232,233)"/><stop offset="70%" stop-opacity="1" style="stop-color:rgb(228,228,229)"/><stop offset="80%" stop-opacity="1" style="stop-color:rgb(224,225,225)"/><stop offset="89.99999999999999%" stop-opacity="1" style="stop-color:rgb(220,221,222)"/><stop offset="99.99999999999999%" stop-opacity="1" style="stop-color:rgb(216,217,218)"/></linearGradient><path d=" M 569.71 291.936 L 545.683 285.245 L 552.814 305.541 L 572.014 311.576 L 584.113 306.822 L 588.719 341.526 L 602.677 350.718 L 587.749 285.245 L 569.71 291.936 Z " fill="url(#_lgradient_16)"/><linearGradient id="_lgradient_17" x1="0.5000006445866125" y1="0.9999995787533078" x2="0.5000006445866126" y2="-4.2124669219489874e-7" gradientTransform="matrix(127,0,0,101,491,241)" gradientUnits="userSpaceOnUse"><stop offset="0%" stop-opacity="1" style="stop-color:rgb(255,255,255)"/><stop offset="10%" stop-opacity="1" style="stop-color:rgb(251,251,251)"/><stop offset="20%" stop-opacity="1" style="stop-color:rgb(247,247,248)"/><stop offset="30.000000000000004%" stop-opacity="1" style="stop-color:rgb(243,244,244)"/><stop offset="40%" stop-opacity="1" style="stop-color:rgb(239,240,240)"/><stop offset="50%" stop-opacity="1" style="stop-color:rgb(236,236,237)"/><stop offset="60%" stop-opacity="1" style="stop-color:rgb(232,232,233)"/><stop offset="70%" stop-opacity="1" style="stop-color:rgb(228,228,229)"/><stop offset="80%" stop-opacity="1" style="stop-color:rgb(224,225,225)"/><stop offset="89.99999999999999%" stop-opacity="1" style="stop-color:rgb(220,221,222)"/><stop offset="99.99999999999999%" stop-opacity="1" style="stop-color:rgb(216,217,218)"/></linearGradient><path d=" M 507.984 241.228 C 474.277 288.958 501.655 340.943 501.655 340.943 L 501.655 340.943 L 516.984 342.119 C 500.467 286.675 517.317 257.341 517.317 257.341 L 517.317 257.341 L 530.203 257.341 L 538.917 257.341 L 563.41 257.341 L 599.377 257.341 C 607.359 257.946 611.519 252.339 611.519 252.339 L 611.519 252.339 L 614.604 247.019 L 617.96 241.228 L 507.984 241.228 Z " fill="url(#_lgradient_17)"/></g></svg>